<?xml version="1.0" encoding="utf-8"?>
<!-- Generator: Adobe Illustrator 19.0.0, SVG Export Plug-In . SVG Version: 6.00 Build 0)  -->
<svg version="1.1" id="Layer_1" xmlns="http://www.w3.org/2000/svg" xmlns:xlink="http://www.w3.org/1999/xlink" x="0px" y="0px"
	 viewBox="0 0 512 512" style="enable-background:new 0 0 512 512;" xml:space="preserve">
<g id="XMLID_1_">
	<path id="XMLID_3_" fill="#868e96" d="M256,0C114.5,0,0,35.4,0,80.1v64.2c0,43.8,114.5,80.1,256,80.1s256-35.4,256-80.1V80.1
		C512,35.4,397.5,0,256,0z"/>
	<path id="XMLID_4_" fill="#868e96" d="M256,271.8c-141.5,0-256-35.4-256-80.1v95.9c0,43.8,114.5,80.1,256,80.1s256-35.4,256-80.1v-95.9
		C512,236.5,397.5,271.8,256,271.8z"/>
	<path id="XMLID_5_" fill="#868e96" d="M256,416.1c-141.5,0-256-35.4-256-80.1v95.9C0,475.7,114.5,512,256,512s256-35.4,256-80.1v-95.9
		C512,379.8,397.5,416.1,256,416.1z"/>
</g>
</svg>
