<?xml version="1.0" encoding="UTF-8" standalone="no"?>
<svg
   xmlns:dc="http://purl.org/dc/elements/1.1/"
   xmlns:cc="http://creativecommons.org/ns#"
   xmlns:rdf="http://www.w3.org/1999/02/22-rdf-syntax-ns#"
   xmlns:svg="http://www.w3.org/2000/svg"
   xmlns="http://www.w3.org/2000/svg"
   xmlns:sodipodi="http://sodipodi.sourceforge.net/DTD/sodipodi-0.dtd"
   xmlns:inkscape="http://www.inkscape.org/namespaces/inkscape"
   id="aa7bae02-e79e-4d6b-a496-aba15f39787c"
   data-name="Layer 1"
   width="1144"
   height="617.32"
   viewBox="0 0 1144 617.32"
   version="1.1"
   sodipodi:docname="undraw_developer_activity_bv83_pink.svg"
   inkscape:version="1.0.2 (e86c870879, 2021-01-15)">
  <metadata
     id="metadata1070">
    <rdf:RDF>
      <cc:Work
         rdf:about="">
        <dc:format>image/svg+xml</dc:format>
        <dc:type
           rdf:resource="http://purl.org/dc/dcmitype/StillImage" />
        <dc:title>developer activity</dc:title>
      </cc:Work>
    </rdf:RDF>
  </metadata>
  <defs
     id="defs1068" />
  <sodipodi:namedview
     pagecolor="#ffffff"
     bordercolor="#666666"
     borderopacity="1"
     objecttolerance="10"
     gridtolerance="10"
     guidetolerance="10"
     inkscape:pageopacity="0"
     inkscape:pageshadow="2"
     inkscape:window-width="2560"
     inkscape:window-height="1361"
     id="namedview1066"
     showgrid="false"
     inkscape:zoom="1.0769231"
     inkscape:cx="565.95558"
     inkscape:cy="392.76668"
     inkscape:window-x="-9"
     inkscape:window-y="-9"
     inkscape:window-maximized="1"
     inkscape:current-layer="aa7bae02-e79e-4d6b-a496-aba15f39787c"
     inkscape:document-rotation="0" />
  <title
     id="title651">developer activity</title>
  <path
     d="M1172,537.57a181.92,181.92,0,0,1-6.85,49.6,180.06,180.06,0,0,1-19.27,44.28c0,50.1-33.82,93.4-82.91,114a167.3,167.3,0,0,1-64.73,12.8H245.17c-40.25,0-77.55-10.86-108.14-29.36A185.76,185.76,0,0,1,112.2,711c-34-29.22-55.08-69.6-55.08-114.2A180.5,180.5,0,0,1,28,498.08c0-73.36,43.39-136.44,105.55-164.29a174.52,174.52,0,0,1,25.51-9.12q4.63-1.26,9.36-2.26a175.39,175.39,0,0,1,25.51-3.5q4.65-.29,9.35-.33H205c3.46,0,6.89.12,10.3.32l1.12-1.9q2.06-3.44,4.22-6.81,3.9-6.14,8.18-12.1,4.48-6.29,9.35-12.38l.83-1q2.76-3.44,5.64-6.8,9-10.49,19-20.35c72.11-70.68,185.08-116.18,312.08-116.18,98.82,0,189.15,27.55,258.34,73.07A174.18,174.18,0,0,1,920,191.86c97.74,0,177,80.37,177,179.51a184.9,184.9,0,0,1-1,18.78A180,180,0,0,1,1172,537.57Z"
     transform="translate(-28 -141.34)"
     fill="#6c63ff"
     opacity="0.1"
     id="path653" />
  <path
     d="M263.66,257.52v20.35h-19Q253.59,267.39,263.66,257.52Z"
     transform="translate(-28 -141.34)"
     fill="#6c63ff"
     opacity="0.2"
     id="path655" />
  <rect
     x="245.02"
     y="111.02"
     width="25.51"
     height="25.51"
     fill="#6c63ff"
     opacity="0.2"
     id="rect657" />
  <rect
     x="279.88"
     y="111.02"
     width="25.51"
     height="25.51"
     fill="#6c63ff"
     opacity="0.2"
     id="rect659" />
  <rect
     x="314.75"
     y="111.02"
     width="25.51"
     height="25.51"
     fill="#6c63ff"
     opacity="0.2"
     id="rect661" />
  <rect
     x="349.61"
     y="111.02"
     width="25.51"
     height="25.51"
     fill="#6c63ff"
     opacity="0.2"
     id="rect663" />
  <rect
     x="384.48"
     y="111.02"
     width="25.51"
     height="25.51"
     fill="#6c63ff"
     opacity="0.2"
     id="rect665" />
  <rect
     x="419.35"
     y="111.02"
     width="25.51"
     height="25.51"
     fill="#6c63ff"
     id="rect667" />
  <rect
     x="454.21"
     y="111.02"
     width="25.51"
     height="25.51"
     fill="#6c63ff"
     opacity="0.2"
     id="rect669" />
  <rect
     x="489.08"
     y="111.02"
     width="25.51"
     height="25.51"
     fill="#6c63ff"
     opacity="0.2"
     id="rect671" />
  <rect
     x="523.94"
     y="111.02"
     width="25.51"
     height="25.51"
     fill="#6c63ff"
     opacity="0.2"
     id="rect673" />
  <rect
     x="558.81"
     y="111.02"
     width="25.51"
     height="25.51"
     fill="#6c63ff"
     id="rect675" />
  <rect
     x="593.68"
     y="111.02"
     width="25.51"
     height="25.51"
     fill="#6c63ff"
     opacity="0.2"
     id="rect677" />
  <rect
     x="628.54"
     y="111.02"
     width="25.51"
     height="25.51"
     fill="#6c63ff"
     opacity="0.2"
     id="rect679" />
  <rect
     x="663.41"
     y="111.02"
     width="25.51"
     height="25.51"
     fill="#6c63ff"
     opacity="0.2"
     id="rect681" />
  <rect
     x="698.28"
     y="111.02"
     width="25.51"
     height="25.51"
     fill="#6c63ff"
     opacity="0.2"
     id="rect683" />
  <rect
     x="733.14"
     y="111.02"
     width="25.51"
     height="25.51"
     fill="#6c63ff"
     opacity="0.2"
     id="rect685" />
  <rect
     x="768.01"
     y="111.02"
     width="25.51"
     height="25.51"
     fill="#6c63ff"
     opacity="0.2"
     id="rect687" />
  <rect
     x="802.87"
     y="111.02"
     width="25.51"
     height="25.51"
     fill="#6c63ff"
     id="rect689" />
  <rect
     x="837.74"
     y="111.02"
     width="25.51"
     height="25.51"
     fill="#6c63ff"
     id="rect691" />
  <rect
     x="872.61"
     y="111.02"
     width="25.51"
     height="25.51"
     fill="#6c63ff"
     opacity="0.2"
     id="rect693" />
  <rect
     x="907.47"
     y="111.02"
     width="25.51"
     height="25.51"
     fill="#6c63ff"
     opacity="0.2"
     id="rect695" />
  <rect
     x="942.34"
     y="111.02"
     width="25.51"
     height="25.51"
     fill="#6c63ff"
     id="rect697" />
  <rect
     x="977.2"
     y="111.02"
     width="25.51"
     height="25.51"
     fill="#6c63ff"
     id="rect699" />
  <path
     d="M228.8,298.08v12.1h-8.18Q224.52,304,228.8,298.08Z"
     transform="translate(-28 -141.34)"
     fill="#6c63ff"
     id="path701" />
  <rect
     x="210.15"
     y="143.33"
     width="25.51"
     height="25.51"
     fill="#6c63ff"
     opacity="0.2"
     id="rect703" />
  <rect
     x="245.02"
     y="143.33"
     width="25.51"
     height="25.51"
     fill="#6c63ff"
     id="rect705" />
  <rect
     x="279.88"
     y="143.33"
     width="25.51"
     height="25.51"
     fill="#6c63ff"
     opacity="0.2"
     id="rect707" />
  <rect
     x="314.75"
     y="143.33"
     width="25.51"
     height="25.51"
     fill="#6c63ff"
     opacity="0.7"
     id="rect709" />
  <rect
     x="349.61"
     y="143.33"
     width="25.51"
     height="25.51"
     fill="#6c63ff"
     opacity="0.2"
     id="rect711" />
  <rect
     x="384.48"
     y="143.33"
     width="25.51"
     height="25.51"
     fill="#6c63ff"
     opacity="0.4"
     id="rect713" />
  <rect
     x="419.35"
     y="143.33"
     width="25.51"
     height="25.51"
     fill="#6c63ff"
     id="rect715" />
  <rect
     x="454.21"
     y="143.33"
     width="25.51"
     height="25.51"
     fill="#6c63ff"
     opacity="0.4"
     id="rect717" />
  <rect
     x="489.08"
     y="143.33"
     width="25.51"
     height="25.51"
     fill="#6c63ff"
     opacity="0.2"
     id="rect719" />
  <rect
     x="523.94"
     y="143.33"
     width="25.51"
     height="25.51"
     fill="#6c63ff"
     opacity="0.4"
     id="rect721" />
  <rect
     x="558.81"
     y="143.33"
     width="25.51"
     height="25.51"
     fill="#6c63ff"
     id="rect723" />
  <rect
     x="593.68"
     y="143.33"
     width="25.51"
     height="25.51"
     fill="#6c63ff"
     opacity="0.4"
     id="rect725" />
  <rect
     x="628.54"
     y="143.33"
     width="25.51"
     height="25.51"
     fill="#6c63ff"
     opacity="0.4"
     id="rect727" />
  <rect
     x="663.41"
     y="143.33"
     width="25.51"
     height="25.51"
     fill="#6c63ff"
     opacity="0.2"
     id="rect729" />
  <rect
     x="698.28"
     y="143.33"
     width="25.51"
     height="25.51"
     fill="#6c63ff"
     opacity="0.4"
     id="rect731" />
  <rect
     x="733.14"
     y="143.33"
     width="25.51"
     height="25.51"
     fill="#6c63ff"
     opacity="0.4"
     id="rect733" />
  <rect
     x="768.01"
     y="143.33"
     width="25.51"
     height="25.51"
     fill="#6c63ff"
     opacity="0.2"
     id="rect735" />
  <rect
     x="802.87"
     y="143.33"
     width="25.51"
     height="25.51"
     fill="#6c63ff"
     opacity="0.2"
     id="rect737" />
  <rect
     x="837.74"
     y="143.33"
     width="25.51"
     height="25.51"
     fill="#6c63ff"
     opacity="0.4"
     id="rect739" />
  <rect
     x="872.61"
     y="143.33"
     width="25.51"
     height="25.51"
     fill="#6c63ff"
     opacity="0.2"
     id="rect741" />
  <rect
     x="907.47"
     y="143.33"
     width="25.51"
     height="25.51"
     fill="#6c63ff"
     id="rect743" />
  <rect
     x="942.34"
     y="143.33"
     width="25.51"
     height="25.51"
     fill="#6c63ff"
     id="rect745" />
  <rect
     x="977.2"
     y="143.33"
     width="25.51"
     height="25.51"
     fill="#6c63ff"
     id="rect747" />
  <path
     d="M159.06,324.67V342.5H133.55v-8.71A174.52,174.52,0,0,1,159.06,324.67Z"
     transform="translate(-28 -141.34)"
     fill="#6c63ff"
     opacity="0.2"
     id="path749" />
  <polygon
     points="165.93 177.57 165.93 201.16 140.42 201.16 140.42 181.07 165.93 177.57"
     fill="#6c63ff"
     opacity="0.2"
     id="polygon751" />
  <rect
     x="175.28"
     y="175.65"
     width="25.51"
     height="25.51"
     fill="#6c63ff"
     id="rect753" />
  <rect
     x="210.15"
     y="175.65"
     width="25.51"
     height="25.51"
     fill="#6c63ff"
     opacity="0.7"
     id="rect755" />
  <rect
     x="245.02"
     y="175.65"
     width="25.51"
     height="25.51"
     fill="#6c63ff"
     id="rect757" />
  <rect
     x="279.88"
     y="175.65"
     width="25.51"
     height="25.51"
     fill="#6c63ff"
     opacity="0.7"
     id="rect759" />
  <rect
     x="314.75"
     y="175.65"
     width="25.51"
     height="25.51"
     fill="#6c63ff"
     opacity="0.7"
     id="rect761" />
  <rect
     x="349.61"
     y="175.65"
     width="25.51"
     height="25.51"
     fill="#6c63ff"
     opacity="0.2"
     id="rect763" />
  <rect
     x="384.48"
     y="175.65"
     width="25.51"
     height="25.51"
     fill="#6c63ff"
     opacity="0.4"
     id="rect765" />
  <rect
     x="419.35"
     y="175.65"
     width="25.51"
     height="25.51"
     fill="#6c63ff"
     opacity="0.4"
     id="rect767" />
  <rect
     x="454.21"
     y="175.65"
     width="25.51"
     height="25.51"
     fill="#6c63ff"
     id="rect769" />
  <rect
     x="489.08"
     y="175.65"
     width="25.51"
     height="25.51"
     fill="#6c63ff"
     opacity="0.2"
     id="rect771" />
  <rect
     x="523.94"
     y="175.65"
     width="25.51"
     height="25.51"
     fill="#6c63ff"
     opacity="0.4"
     id="rect773" />
  <rect
     x="558.81"
     y="175.65"
     width="25.51"
     height="25.51"
     fill="#6c63ff"
     id="rect775" />
  <rect
     x="593.68"
     y="175.65"
     width="25.51"
     height="25.51"
     fill="#6c63ff"
     opacity="0.2"
     id="rect777" />
  <rect
     x="628.54"
     y="175.65"
     width="25.51"
     height="25.51"
     fill="#6c63ff"
     opacity="0.4"
     id="rect779" />
  <rect
     x="663.41"
     y="175.65"
     width="25.51"
     height="25.51"
     fill="#6c63ff"
     opacity="0.2"
     id="rect781" />
  <rect
     x="698.28"
     y="175.65"
     width="25.51"
     height="25.51"
     fill="#6c63ff"
     id="rect783" />
  <rect
     x="733.14"
     y="175.65"
     width="25.51"
     height="25.51"
     fill="#6c63ff"
     opacity="0.2"
     id="rect785" />
  <rect
     x="768.01"
     y="175.65"
     width="25.51"
     height="25.51"
     fill="#6c63ff"
     opacity="0.7"
     id="rect787" />
  <rect
     x="802.87"
     y="175.65"
     width="25.51"
     height="25.51"
     fill="#6c63ff"
     opacity="0.7"
     id="rect789" />
  <rect
     x="837.74"
     y="175.65"
     width="25.51"
     height="25.51"
     fill="#6c63ff"
     opacity="0.4"
     id="rect791" />
  <rect
     x="872.61"
     y="175.65"
     width="25.51"
     height="25.51"
     fill="#6c63ff"
     opacity="0.2"
     id="rect793" />
  <rect
     x="907.47"
     y="175.65"
     width="25.51"
     height="25.51"
     fill="#6c63ff"
     id="rect795" />
  <rect
     x="942.34"
     y="175.65"
     width="25.51"
     height="25.51"
     fill="#6c63ff"
     id="rect797" />
  <rect
     x="977.2"
     y="175.65"
     width="25.51"
     height="25.51"
     fill="#6c63ff"
     id="rect799" />
  <rect
     x="105.55"
     y="207.96"
     width="25.51"
     height="25.51"
     fill="#6c63ff"
     opacity="0.2"
     id="rect801" />
  <rect
     x="140.42"
     y="207.96"
     width="25.51"
     height="25.51"
     fill="#6c63ff"
     opacity="0.2"
     id="rect803" />
  <rect
     x="175.28"
     y="207.96"
     width="25.51"
     height="25.51"
     fill="#6c63ff"
     opacity="0.2"
     id="rect805" />
  <rect
     x="210.15"
     y="207.96"
     width="25.51"
     height="25.51"
     fill="#6c63ff"
     opacity="0.2"
     id="rect807" />
  <rect
     x="245.02"
     y="207.96"
     width="25.51"
     height="25.51"
     fill="#6c63ff"
     id="rect809" />
  <rect
     x="279.88"
     y="207.96"
     width="25.51"
     height="25.51"
     fill="#6c63ff"
     opacity="0.7"
     id="rect811" />
  <rect
     x="314.75"
     y="207.96"
     width="25.51"
     height="25.51"
     fill="#6c63ff"
     opacity="0.7"
     id="rect813" />
  <rect
     x="349.61"
     y="207.96"
     width="25.51"
     height="25.51"
     fill="#6c63ff"
     opacity="0.2"
     id="rect815" />
  <rect
     x="384.48"
     y="207.96"
     width="25.51"
     height="25.51"
     fill="#6c63ff"
     opacity="0.2"
     id="rect817" />
  <rect
     x="419.35"
     y="207.96"
     width="25.51"
     height="25.51"
     fill="#6c63ff"
     opacity="0.4"
     id="rect819" />
  <rect
     x="454.21"
     y="207.96"
     width="25.51"
     height="25.51"
     fill="#6c63ff"
     opacity="0.4"
     id="rect821" />
  <rect
     x="489.08"
     y="207.96"
     width="25.51"
     height="25.51"
     fill="#6c63ff"
     id="rect823" />
  <rect
     x="523.94"
     y="207.96"
     width="25.51"
     height="25.51"
     fill="#6c63ff"
     opacity="0.2"
     id="rect825" />
  <rect
     x="558.81"
     y="207.96"
     width="25.51"
     height="25.51"
     fill="#6c63ff"
     opacity="0.4"
     id="rect827" />
  <rect
     x="593.68"
     y="207.96"
     width="25.51"
     height="25.51"
     fill="#6c63ff"
     opacity="0.4"
     id="rect829" />
  <rect
     x="628.54"
     y="207.96"
     width="25.51"
     height="25.51"
     fill="#6c63ff"
     opacity="0.4"
     id="rect831" />
  <rect
     x="663.41"
     y="207.96"
     width="25.51"
     height="25.51"
     fill="#6c63ff"
     opacity="0.4"
     id="rect833" />
  <rect
     x="698.28"
     y="207.96"
     width="25.51"
     height="25.51"
     fill="#6c63ff"
     opacity="0.2"
     id="rect835" />
  <rect
     x="733.14"
     y="207.96"
     width="25.51"
     height="25.51"
     fill="#6c63ff"
     opacity="0.2"
     id="rect837" />
  <rect
     x="768.01"
     y="207.96"
     width="25.51"
     height="25.51"
     fill="#6c63ff"
     opacity="0.2"
     id="rect839" />
  <rect
     x="802.87"
     y="207.96"
     width="25.51"
     height="25.51"
     fill="#6c63ff"
     opacity="0.2"
     id="rect841" />
  <rect
     x="837.74"
     y="207.96"
     width="25.51"
     height="25.51"
     fill="#6c63ff"
     opacity="0.7"
     id="rect843" />
  <rect
     x="872.61"
     y="207.96"
     width="25.51"
     height="25.51"
     fill="#6c63ff"
     opacity="0.7"
     id="rect845" />
  <rect
     x="907.47"
     y="207.96"
     width="25.51"
     height="25.51"
     fill="#6c63ff"
     opacity="0.4"
     id="rect847" />
  <rect
     x="942.34"
     y="207.96"
     width="25.51"
     height="25.51"
     fill="#6c63ff"
     opacity="0.2"
     id="rect849" />
  <rect
     x="977.2"
     y="207.96"
     width="25.51"
     height="25.51"
     fill="#6c63ff"
     id="rect851" />
  <rect
     x="105.55"
     y="240.28"
     width="25.51"
     height="25.51"
     fill="#6c63ff"
     opacity="0.2"
     id="rect853" />
  <rect
     x="140.42"
     y="240.28"
     width="25.51"
     height="25.51"
     fill="#6c63ff"
     opacity="0.2"
     id="rect855" />
  <rect
     x="175.28"
     y="240.28"
     width="25.51"
     height="25.51"
     fill="#6c63ff"
     opacity="0.4"
     id="rect857" />
  <rect
     x="210.15"
     y="240.28"
     width="25.51"
     height="25.51"
     fill="#6c63ff"
     opacity="0.2"
     id="rect859" />
  <rect
     x="245.02"
     y="240.28"
     width="25.51"
     height="25.51"
     fill="#6c63ff"
     opacity="0.2"
     id="rect861" />
  <rect
     x="279.88"
     y="240.28"
     width="25.51"
     height="25.51"
     fill="#6c63ff"
     opacity="0.7"
     id="rect863" />
  <rect
     x="314.75"
     y="240.28"
     width="25.51"
     height="25.51"
     fill="#6c63ff"
     opacity="0.7"
     id="rect865" />
  <rect
     x="349.61"
     y="240.28"
     width="25.51"
     height="25.51"
     fill="#6c63ff"
     opacity="0.2"
     id="rect867" />
  <rect
     x="384.48"
     y="240.28"
     width="25.51"
     height="25.51"
     fill="#6c63ff"
     opacity="0.2"
     id="rect869" />
  <rect
     x="419.35"
     y="240.28"
     width="25.51"
     height="25.51"
     fill="#6c63ff"
     opacity="0.4"
     id="rect871" />
  <rect
     x="454.21"
     y="240.28"
     width="25.51"
     height="25.51"
     fill="#6c63ff"
     id="rect873" />
  <rect
     x="489.08"
     y="240.28"
     width="25.51"
     height="25.51"
     fill="#6c63ff"
     opacity="0.2"
     id="rect875" />
  <rect
     x="523.94"
     y="240.28"
     width="25.51"
     height="25.51"
     fill="#6c63ff"
     id="rect877" />
  <rect
     x="558.81"
     y="240.28"
     width="25.51"
     height="25.51"
     fill="#6c63ff"
     id="rect879" />
  <rect
     x="593.68"
     y="240.28"
     width="25.51"
     height="25.51"
     fill="#6c63ff"
     id="rect881" />
  <rect
     x="628.54"
     y="240.28"
     width="25.51"
     height="25.51"
     fill="#6c63ff"
     opacity="0.2"
     id="rect883" />
  <rect
     x="663.41"
     y="240.28"
     width="25.51"
     height="25.51"
     fill="#6c63ff"
     id="rect885" />
  <rect
     x="698.28"
     y="240.28"
     width="25.51"
     height="25.51"
     fill="#6c63ff"
     opacity="0.2"
     id="rect887" />
  <rect
     x="733.14"
     y="240.28"
     width="25.51"
     height="25.51"
     fill="#6c63ff"
     opacity="0.2"
     id="rect889" />
  <rect
     x="768.01"
     y="240.28"
     width="25.51"
     height="25.51"
     fill="#6c63ff"
     opacity="0.2"
     id="rect891" />
  <rect
     x="802.87"
     y="240.28"
     width="25.51"
     height="25.51"
     fill="#6c63ff"
     opacity="0.2"
     id="rect893" />
  <rect
     x="837.74"
     y="240.28"
     width="25.51"
     height="25.51"
     fill="#6c63ff"
     opacity="0.2"
     id="rect895" />
  <rect
     x="872.61"
     y="240.28"
     width="25.51"
     height="25.51"
     fill="#6c63ff"
     opacity="0.7"
     id="rect897" />
  <rect
     x="907.47"
     y="240.28"
     width="25.51"
     height="25.51"
     fill="#6c63ff"
     opacity="0.2"
     id="rect899" />
  <rect
     x="942.34"
     y="240.28"
     width="25.51"
     height="25.51"
     fill="#6c63ff"
     opacity="0.2"
     id="rect901" />
  <rect
     x="977.2"
     y="240.28"
     width="25.51"
     height="25.51"
     fill="#6c63ff"
     id="rect903" />
  <rect
     x="105.55"
     y="272.59"
     width="25.51"
     height="25.51"
     fill="#6c63ff"
     opacity="0.2"
     id="rect905" />
  <rect
     x="140.42"
     y="272.59"
     width="25.51"
     height="25.51"
     fill="#6c63ff"
     opacity="0.2"
     id="rect907" />
  <rect
     x="175.28"
     y="272.59"
     width="25.51"
     height="25.51"
     fill="#6c63ff"
     opacity="0.2"
     id="rect909" />
  <rect
     x="210.15"
     y="272.59"
     width="25.51"
     height="25.51"
     fill="#6c63ff"
     opacity="0.4"
     id="rect911" />
  <rect
     x="245.02"
     y="272.59"
     width="25.51"
     height="25.51"
     fill="#6c63ff"
     opacity="0.2"
     id="rect913" />
  <rect
     x="279.88"
     y="272.59"
     width="25.51"
     height="25.51"
     fill="#6c63ff"
     opacity="0.2"
     id="rect915" />
  <rect
     x="314.75"
     y="272.59"
     width="25.51"
     height="25.51"
     fill="#6c63ff"
     opacity="0.7"
     id="rect917" />
  <rect
     x="349.61"
     y="272.59"
     width="25.51"
     height="25.51"
     fill="#6c63ff"
     opacity="0.2"
     id="rect919" />
  <rect
     x="384.48"
     y="272.59"
     width="25.51"
     height="25.51"
     fill="#6c63ff"
     opacity="0.2"
     id="rect921" />
  <rect
     x="419.35"
     y="272.59"
     width="25.51"
     height="25.51"
     fill="#6c63ff"
     opacity="0.2"
     id="rect923" />
  <rect
     x="454.21"
     y="272.59"
     width="25.51"
     height="25.51"
     fill="#6c63ff"
     id="rect925" />
  <rect
     x="489.08"
     y="272.59"
     width="25.51"
     height="25.51"
     fill="#6c63ff"
     opacity="0.2"
     id="rect927" />
  <rect
     x="523.94"
     y="272.59"
     width="25.51"
     height="25.51"
     fill="#6c63ff"
     id="rect929" />
  <rect
     x="558.81"
     y="272.59"
     width="25.51"
     height="25.51"
     fill="#6c63ff"
     id="rect931" />
  <rect
     x="593.68"
     y="272.59"
     width="25.51"
     height="25.51"
     fill="#6c63ff"
     opacity="0.2"
     id="rect933" />
  <rect
     x="628.54"
     y="272.59"
     width="25.51"
     height="25.51"
     fill="#6c63ff"
     opacity="0.2"
     id="rect935" />
  <rect
     x="663.41"
     y="272.59"
     width="25.51"
     height="25.51"
     fill="#6c63ff"
     opacity="0.2"
     id="rect937" />
  <rect
     x="698.28"
     y="272.59"
     width="25.51"
     height="25.51"
     fill="#6c63ff"
     opacity="0.2"
     id="rect939" />
  <rect
     x="733.14"
     y="272.59"
     width="25.51"
     height="25.51"
     fill="#6c63ff"
     opacity="0.2"
     id="rect941" />
  <rect
     x="768.01"
     y="272.59"
     width="25.51"
     height="25.51"
     fill="#6c63ff"
     opacity="0.2"
     id="rect943" />
  <rect
     x="802.87"
     y="272.59"
     width="25.51"
     height="25.51"
     fill="#6c63ff"
     opacity="0.2"
     id="rect945" />
  <rect
     x="837.74"
     y="272.59"
     width="25.51"
     height="25.51"
     fill="#6c63ff"
     opacity="0.2"
     id="rect947" />
  <rect
     x="872.61"
     y="272.59"
     width="25.51"
     height="25.51"
     fill="#6c63ff"
     opacity="0.2"
     id="rect949" />
  <rect
     x="907.47"
     y="272.59"
     width="25.51"
     height="25.51"
     fill="#6c63ff"
     opacity="0.2"
     id="rect951" />
  <rect
     x="942.34"
     y="272.59"
     width="25.51"
     height="25.51"
     fill="#6c63ff"
     opacity="0.4"
     id="rect953" />
  <rect
     x="977.2"
     y="272.59"
     width="25.51"
     height="25.51"
     fill="#6c63ff"
     id="rect955" />
  <rect
     x="105.55"
     y="304.91"
     width="25.51"
     height="25.51"
     fill="#6c63ff"
     opacity="0.7"
     id="rect957" />
  <rect
     x="140.42"
     y="304.91"
     width="25.51"
     height="25.51"
     fill="#6c63ff"
     opacity="0.7"
     id="rect959" />
  <rect
     x="175.28"
     y="304.91"
     width="25.51"
     height="25.51"
     fill="#6c63ff"
     opacity="0.7"
     id="rect961" />
  <rect
     x="210.15"
     y="304.91"
     width="25.51"
     height="25.51"
     fill="#6c63ff"
     opacity="0.7"
     id="rect963" />
  <rect
     x="245.02"
     y="304.91"
     width="25.51"
     height="25.51"
     fill="#6c63ff"
     opacity="0.7"
     id="rect965" />
  <rect
     x="279.88"
     y="304.91"
     width="25.51"
     height="25.51"
     fill="#6c63ff"
     opacity="0.2"
     id="rect967" />
  <rect
     x="314.75"
     y="304.91"
     width="25.51"
     height="25.51"
     fill="#6c63ff"
     opacity="0.2"
     id="rect969" />
  <rect
     x="349.61"
     y="304.91"
     width="25.51"
     height="25.51"
     fill="#6c63ff"
     opacity="0.2"
     id="rect971" />
  <rect
     x="384.48"
     y="304.91"
     width="25.51"
     height="25.51"
     fill="#6c63ff"
     opacity="0.2"
     id="rect973" />
  <rect
     x="419.35"
     y="304.91"
     width="25.51"
     height="25.51"
     fill="#6c63ff"
     opacity="0.2"
     id="rect975" />
  <rect
     x="454.21"
     y="304.91"
     width="25.51"
     height="25.51"
     fill="#6c63ff"
     opacity="0.2"
     id="rect977" />
  <rect
     x="489.08"
     y="304.91"
     width="25.51"
     height="25.51"
     fill="#6c63ff"
     id="rect979" />
  <rect
     x="523.94"
     y="304.91"
     width="25.51"
     height="25.51"
     fill="#6c63ff"
     opacity="0.2"
     id="rect981" />
  <rect
     x="558.81"
     y="304.91"
     width="25.51"
     height="25.51"
     fill="#6c63ff"
     opacity="0.2"
     id="rect983" />
  <rect
     x="593.68"
     y="304.91"
     width="25.51"
     height="25.51"
     fill="#6c63ff"
     opacity="0.2"
     id="rect985" />
  <rect
     x="628.54"
     y="304.91"
     width="25.51"
     height="25.51"
     fill="#6c63ff"
     id="rect987" />
  <rect
     x="663.41"
     y="304.91"
     width="25.51"
     height="25.51"
     fill="#6c63ff"
     opacity="0.2"
     id="rect989" />
  <rect
     x="698.28"
     y="304.91"
     width="25.51"
     height="25.51"
     fill="#6c63ff"
     opacity="0.2"
     id="rect991" />
  <rect
     x="733.14"
     y="304.91"
     width="25.51"
     height="25.51"
     fill="#6c63ff"
     opacity="0.2"
     id="rect993" />
  <rect
     x="768.01"
     y="304.91"
     width="25.51"
     height="25.51"
     fill="#6c63ff"
     opacity="0.2"
     id="rect995" />
  <rect
     x="802.87"
     y="304.91"
     width="25.51"
     height="25.51"
     fill="#6c63ff"
     opacity="0.2"
     id="rect997" />
  <rect
     x="837.74"
     y="304.91"
     width="25.51"
     height="25.51"
     fill="#6c63ff"
     opacity="0.2"
     id="rect999" />
  <rect
     x="872.61"
     y="304.91"
     width="25.51"
     height="25.51"
     fill="#6c63ff"
     opacity="0.2"
     id="rect1001" />
  <rect
     x="907.47"
     y="304.91"
     width="25.51"
     height="25.51"
     fill="#6c63ff"
     opacity="0.2"
     id="rect1003" />
  <rect
     x="942.34"
     y="304.91"
     width="25.51"
     height="25.51"
     fill="#6c63ff"
     opacity="0.2"
     id="rect1005" />
  <rect
     x="977.2"
     y="304.91"
     width="25.51"
     height="25.51"
     fill="#6c63ff"
     id="rect1007" />
  <circle
     cx="734.52"
     cy="363.89"
     r="34.87"
     fill="#767d9f"
     id="circle1009" />
  <path
     d="M760.71,460.87q5.22,22.78,8.86,45.9c.73,4.58,1.38,9.41-.28,13.74-1.39,3.61-4.22,6.43-6.44,9.59s-3.9,7.21-2.55,10.83,5.29,5.6,9.05,6.62c10.76,2.9,22.23.79,32.94-2.35a53.29,53.29,0,0,0,13.81-5.72c4.54-2.88,8.26-6.88,11.68-11,15.61-18.93,25.83-41.65,35.45-64.23a39.12,39.12,0,0,1-33.11-13.34c-3.94-4.63-6.83-11.08-4.61-16.74-6.51,3.57-14.24,3.81-21.25,6.25a75.49,75.49,0,0,0-12.5,6.15q-7.18,4.15-14.28,8.46C772.07,458.29,767,461.19,760.71,460.87Z"
     transform="translate(-28 -141.34)"
     fill="#ae6e79"
     id="path1011" />
  <path
     d="M833.64,487.05c-6.11,11.89-14.06,23.32-25.41,30.4s-26.63,9-38,2c-5.6-3.42-9.84-8.62-14.73-13s-11-8.13-17.57-7.56c-7.24.63-12.91,6.28-17.76,11.69-7.36,8.22-14.47,16.79-19.68,26.52-10,18.7-12.37,40.56-11.93,61.76s3.51,42.29,3.58,63.49c.1,26.08-4.32,51.95-8.79,77.64,41.1-5.06,82.25,6,123.44,10.19,26.36,2.71,52.92,2.65,79.42,2.58,4.66,0,9.62-.12,13.5-2.7a18.2,18.2,0,0,0,5.59-6.64c3.66-6.75,5.13-14.45,6.15-22.06,2.59-19.22,2.67-38.68,2.74-58.08.18-47,.35-94.17-5.62-140.8-1.47-11.47-3.35-23-7.75-33.73s-11.58-20.6-21.62-26.35c-6.45-3.7-21.4-10.14-29-6.41C841.67,460.15,837.73,479.09,833.64,487.05Z"
     transform="translate(-28 -141.34)"
     fill="#767d9f"
     id="path1013" />
  <path
     d="M836.68,619.77c-1.55-29-7.86-59.95,5.57-85.69,3.3-6.32-8.54-14.21-4.88-20.33a92.08,92.08,0,0,0,10.06-23.93c.76-2.89,1.37-5.95.65-8.85-1.33-5.29-6.56-8.44-11-11.66-4.9-3.56-7.42-14.41-9-20.28s12.57,1.2,18.26-.89c7.9-2.89,17.94-1.07,25.82,1.86,4.4,1.62,9.18,1.76,13.87,1.88,9.11.24,18.25.47,27.29-.65,4.06-.51,8.13-1.28,12.21-1.05,10.41.59,19.46,7.71,25.62,16.13s10.08,18.23,15.13,27.35c4.21,7.6,9.23,14.78,12.82,22.69,3.18,7,5.19,14.52,7.18,22l5.13,19.19a25.58,25.58,0,0,1,1.26,8.51c-.26,3.07-1.62,5.93-3,8.66A164.12,164.12,0,0,1,971,603.2c-10.79,13.23-23.89,25.16-30.3,41-2.5,6.17-3.89,12.73-5.16,19.27a707.94,707.94,0,0,0-10.9,79.15,174.2,174.2,0,0,0-36.52-12.21,177.61,177.61,0,0,0-19-3c-5.59-.58-12.8.52-18.12-1-8.9-2.53-9.88-17.58-11.23-25.46-2.16-12.55-2.59-25.32-2.67-38C837,648.53,837.45,634.14,836.68,619.77Z"
     transform="translate(-28 -141.34)"
     fill="#4c4981"
     id="path1015" />
  <path
     d="M641.23,565.54c4.21,24,8.85,48.07,18,70.62-.23.22-.46.42-.69.62-.81.69-1.65,1.34-2.53,2-2.05,1.44-4.3,2.66-6,4.54a8,8,0,0,0-1.5,2.45,5.48,5.48,0,0,0,0,4.47c-4.77,2.11-10.31,1.46-15.66,1.26-4.61-.17-9.08,0-12.78,2.53-5.14,3.54-6.69,10.34-7.52,16.52q-.46,3.38-.79,6.77-.32,3.15-.52,6.32a188.61,188.61,0,0,0-.19,21q.08,1.92.21,3.84c-16.34-.39-31.23-8.91-45.32-17.19-3.22-1.89-6.54-3.88-8.63-7A15.8,15.8,0,0,1,555,674c0-.51.09-1,.16-1.52a41.58,41.58,0,0,1,2.29-8.68,107.2,107.2,0,0,1,19.19-32.65c3.58-4.18,7.61-8.27,9.28-13.52.73-2.29,1-4.72,1.74-7,3.32-9.88,15.3-14.55,19.4-24.14,1-2.29,1.46-4.8,2.7-7a17.63,17.63,0,0,1,4.25-4.75c.73-.61,1.49-1.2,2.24-1.79q10.54-8.26,20.31-17.45,1.82-1.71,3.6-3.46A59.48,59.48,0,0,0,641.23,565.54Z"
     transform="translate(-28 -141.34)"
     fill="#4c4981"
     id="path1017" />
  <path
     d="M742,494.56c-1.44,1.52-3,2.95-4.53,4.37l-.41.37-1.62,1.5a39,39,0,0,0-7.55,8.79l-.17.28c-5.1,9.13-3.21,20.37-1.79,30.74a261.55,261.55,0,0,1,2.37,39c-.26,18-2.38,35.88-2.42,53.86,0,4.08.09,8.15.27,12.23.29,6.63.79,13.25,1.39,19.87.65,7.26,1.43,14.51,2.16,21.76.58,5.61,1.13,11.21,1.59,16.81.23,2.9.45,5.79.63,8.69.21,3.4.38,6.81.48,10.21h0c.07,2.16.11,4.31.11,6.47,0,1.23,0,2.45,0,3.67q0,3.51-.19,7-.2,4.49-.61,9c-.31,3.27-.86,6.84-3.16,9.14-.14.14-.29.27-.44.4l-3.24-.4a332.72,332.72,0,0,0-67.3-1.2c.49-3.38.94-6.75,1.38-10.14.2-1.6.4-3.21.59-4.82q.33-2.76.63-5.52c.23-2,.44-4,.64-6q.78-7.73,1.37-15.47.87-11.29,1.32-22.62.22-5.41.34-10.83.17-6.72.16-13.45,0-6.54-.11-13.1c0-1.44-.06-2.88-.18-4.31a27.35,27.35,0,0,0-.53-3.83,49.87,49.87,0,0,0-3-8.48c-.22-.52-.43-1-.64-1.55-.12-.27-.23-.55-.34-.82,5.76-5.13,9.86-12,13.8-18.76,6.39-10.89,12.93-22.26,14-34.84s-5.18-26.71-17.2-30.55c-3.27-1-6.73-1.28-10.1-1.87-3.18-.56-9.81-1.83-13.49-4.11q-3,3.08-6,6.05a22.15,22.15,0,0,1,2.17-8.71l1.42.07a2.71,2.71,0,0,1-.16-1c0-1.07.74-2.28,2.32-3.62,4.71-4,12.12-4.89,15.09-10.3,1.24-2.25,1.45-4.93,2.45-7.29,2.87-6.73,11.11-9.21,16.07-14.59s6.2-13,10.21-19a28.62,28.62,0,0,1,12-10c.4-.19.81-.38,1.22-.55,8.3-3.55,18.16-4.36,26.76-4.34,3.34,0,12,.1,16.24,1.79a5.32,5.32,0,0,1,1.85,1.13C752.37,480.61,745.34,491,742,494.56Z"
     transform="translate(-28 -141.34)"
     fill="#4c4981"
     id="path1019" />
  <path
     d="M642.72,542.69a60.88,60.88,0,0,1,46.74,4.87c7.2,4,13.66,9.58,17.62,16.78,5.95,10.8,5.69,23.82,5.27,36.15-.21,6.17-.48,12.56-3.2,18.1C706,625,700.06,629.4,694,633a42.24,42.24,0,0,1-12.32,5.33c-6.72,1.46-13.7.22-20.47-1-7.36-1.36-15.26-3-20.37-8.48-3-3.18-4.64-7.31-6.26-11.35q-3.49-8.75-7-17.48c-4.05-10.11-5.42-18.52-.07-28.37,2.43-4.49,5.4-8.69,7.8-13.21C636.51,556.14,640.81,543.28,642.72,542.69Z"
     transform="translate(-28 -141.34)"
     fill="#4c4981"
     id="path1021" />
  <path
     d="M1063,715.56v29.9a167.3,167.3,0,0,1-64.73,12.8H728.58c-.14.14-.29.27-.44.4l-3.24-.4H245.17c-40.25,0-77.55-10.86-108.14-29.36V683.25l230.72-26.63.18,0L502.29,668l34.77,3,18.06,1.53,37.38,3.17,19.23,1.63,28,2.38,3.94.33,20.18,1.71L691.23,684l38.5,3.26,64.18,5.45,45.15,3.83,74.14,6.29,14.1,1.19,1.52.13,1.32.11,18.62,1.58,20.44,1.74,2.37.2Z"
     transform="translate(-28 -141.34)"
     fill="#504f60"
     id="path1023" />
  <polygon
     points="764 573.12 474.86 523.77 463.65 580.46 596.19 596.33 637 601.44 749.26 579.33 764 573.12"
     fill="#9c9ca1"
     id="polygon1025" />
  <path
     d="M642.33,739.94l144.86-27.23a5,5,0,0,1,5.94,4.93h0a5,5,0,0,1-4.09,4.93L647.57,749.06Z"
     transform="translate(-28 -141.34)"
     fill="#9c9ca1"
     id="path1027" />
  <path
     d="M705.17,654.31c4.51-.42,9.08-1.13,13.14-3.13,5-2.49,8.89-6.78,13.52-9.94,10.18-7,23.8-7.94,35.47-3.92s21.41,12.63,28.23,22.91c4.53,6.85,7.93,15.59,4.73,23.15a30.51,30.51,0,0,1-4.12,6.44l-8.34,10.9a29,29,0,0,1-5.66,6.09c-3.12,2.27-7,3.2-10.82,3.76-10.15,1.48-20.48.64-30.71,1.32-17.57,1.17-34.73,6.83-52.34,6.64-10.12-.11-20.11-2.15-30-4.19l-43.77-9c-7.62-1.56-16.23-3.84-19.82-10.75-1.61-3.11-1.91-6.71-2.1-10.21-.52-9.64,0-20.36,6.68-27.31,6.28-6.52,16.21-8.58,23.71-13.4,9.18-5.91,12.21-4,21.89.44A120,120,0,0,0,705.17,654.31Z"
     transform="translate(-28 -141.34)"
     fill="#ae6e79"
     id="path1029" />
  <path
     d="M705.17,654.31c4.51-.42,9.08-1.13,13.14-3.13,5-2.49,8.89-6.78,13.52-9.94,10.18-7,23.8-7.94,35.47-3.92s21.41,12.63,28.23,22.91c4.53,6.85,7.93,15.59,4.73,23.15a30.51,30.51,0,0,1-4.12,6.44l-8.34,10.9a29,29,0,0,1-5.66,6.09c-3.12,2.27-7,3.2-10.82,3.76-10.15,1.48-20.48.64-30.71,1.32-17.57,1.17-34.73,6.83-52.34,6.64-10.12-.11-20.11-2.15-30-4.19l-43.77-9c-7.62-1.56-16.23-3.84-19.82-10.75-1.61-3.11-1.91-6.71-2.1-10.21-.52-9.64,0-20.36,6.68-27.31,6.28-6.52,16.21-8.58,23.71-13.4,9.18-5.91,12.21-4,21.89.44A120,120,0,0,0,705.17,654.31Z"
     transform="translate(-28 -141.34)"
     opacity="0.05"
     id="path1031" />
  <path
     d="M880.94,640.6c-12.28,4.75-24.63,9.52-37.49,12.35-21.56,4.75-44.12,4-65.51,9.43-11.3,2.88-22.53,7.52-34.14,6.58-5.19-.42-10.2-2-15.25-3.2-28.37-7-60.62-4.73-83.66,13.27-7.88,6.15-14.33,13.82-20.18,22a14.7,14.7,0,0,0,5.91,21.88A86.62,86.62,0,0,0,659,730.48c13.13,1.16,26.32-.7,39.38-2.56,19.38-2.75,38.77-5.51,58.1-8.6,6.94-1.11,13.88-2.26,20.86-3.14,50.23-6.35,101.37,1.37,151.73-3.93,5.09-.54,10.27-1.24,14.9-3.41,11.72-5.5,17.52-20,15.1-32.74s-11.76-23.33-23-29.83c-9.42-5.47-19.58-7.68-30.07-10C896.26,634,890.32,637,880.94,640.6Z"
     transform="translate(-28 -141.34)"
     fill="#ae6e79"
     id="path1033" />
  <path
     d="M988.67,564.44c5.54,7.26,6.72,17,6.12,26.09s-2.76,18.08-3.08,27.21c-.44,12.52,2.58,25,2.07,37.48-.36,8.73-2.43,17.29-4.88,25.67-2.89,9.89-7.07,20.52-16.2,25.27-12.12,6.31-37.54,2.76-50.29,7.7,1.16-7.23,12.28-17.7,13.44-24.93.8-5,1.61-10.14.75-15.15-1.1-6.39-4.85-12.06-9.3-16.78-7.08-7.51-16.32-13.16-26.47-15s-35-.33-43.12,6.08c-1-6.62,17.6-13,24.14-14.43,3.26-.73,7-.32,9.61-2.39,5-3.92,1.37-11.73,1.61-18,.19-5,3.11-9.58,3.7-14.58,1-8-4.22-16.15-2.17-24,.76-2.9,2.45-5.45,3.62-8.21,3.56-8.45,2-18.09.1-27.07-1.18-5.64-2.33-12,.81-16.81,2.91-4.49,11.17,11.5,16.46,10.76,17.47-2.45,33.28-15.4,47.39-4.8,7.19,5.4,8.13,11,11,18.71C976.77,554.6,984,558.36,988.67,564.44Z"
     transform="translate(-28 -141.34)"
     opacity="0.1"
     id="path1035" />
  <path
     d="M991.67,564.44c5.54,7.26,6.72,17,6.12,26.09s-2.76,18.08-3.08,27.21c-.44,12.52,2.58,25,2.07,37.48-.36,8.73-2.43,17.29-4.88,25.67-2.89,9.89-7.07,20.52-16.2,25.27-12.12,6.31-37.54,2.76-50.29,7.7,1.16-7.23,12.28-17.7,13.44-24.93.8-5,1.61-10.14.75-15.15-1.1-6.39-4.85-12.06-9.3-16.78-7.08-7.51-16.32-13.16-26.47-15s-35-.33-43.12,6.08c-1-6.62,17.6-13,24.14-14.43,3.26-.73,7-.32,9.61-2.39,5-3.92,1.37-11.73,1.61-18,.19-5,3.11-9.58,3.7-14.58,1-8-4.22-16.15-2.17-24,.76-2.9,2.45-5.45,3.62-8.21,3.56-8.45,2-18.09.1-27.07-1.18-5.64-2.33-12,.81-16.81,2.91-4.49,8.6-6.19,13.89-6.94a68.42,68.42,0,0,1,50,12.9c7.19,5.4,8.13,11,11,18.71C979.77,554.6,987,558.36,991.67,564.44Z"
     transform="translate(-28 -141.34)"
     fill="#4c4981"
     id="path1037" />
  <path
     d="M330,517.06,384.37,718a12.55,12.55,0,0,0,10.91,9.21L640,750.72a12.54,12.54,0,0,0,13.38-15.48L593.84,492.86a12.54,12.54,0,0,0-13.12-9.51L341.13,501.27A12.54,12.54,0,0,0,330,517.06Z"
     transform="translate(-28 -141.34)"
     fill="#9c9ca1"
     id="path1039" />
  <ellipse
     cx="787.11"
     cy="387.68"
     rx="26.9"
     ry="27.25"
     fill="#fff"
     id="ellipse1041" />
  <path
     d="M837.2,479.31s5.67,16.86-11.06,23.95L824,507l10.48,10.34S847.4,493.77,846,485.4C846,485.4,844,476.9,837.2,479.31Z"
     transform="translate(-28 -141.34)"
     fill="#fff"
     id="path1043" />
  <circle
     cx="790.2"
     cy="388.99"
     r="25.94"
     fill="#6c63ff"
     id="circle1045" />
  <path
     d="M846.13,489.23l-4.12-6.8-6-.85c1.28-22.39-4.53-29.06-4.53-29.06l-1.35-.13-5.88-.57-11.06-11.48v-3.26c15.54,1.85,24.13,9.23,28.77,17.88C850.16,470.14,846.13,489.23,846.13,489.23Z"
     transform="translate(-28 -141.34)"
     fill="#6c63ff"
     id="path1047" />
  <path
     d="M830.18,448.27v4.12l-5.88-.57-11.06-11.48S830.35,444.17,830.18,448.27Z"
     transform="translate(-28 -141.34)"
     stroke="#4c4981"
     stroke-miterlimit="10"
     opacity="0.1"
     id="path1049" />
  <path
     d="M846.13,489.23l-4.12-6.8V455C850.16,470.14,846.13,489.23,846.13,489.23Z"
     transform="translate(-28 -141.34)"
     stroke="#4c4981"
     stroke-miterlimit="10"
     opacity="0.1"
     id="path1051" />
  <ellipse
     cx="757.11"
     cy="518.2"
     rx="14.43"
     ry="26.32"
     transform="translate(-185.67 306.64) rotate(-30)"
     fill="#fff"
     id="ellipse1053" />
  <path
     d="M761,516c7.27,12.59,16.19,21,9.29,25s-27,2-34.27-10.6-.67-30,6.23-34S753.72,503.38,761,516Z"
     transform="translate(-28 -141.34)"
     fill="#6c63ff"
     id="path1055" />
  <path
     d="M825.73,425.3c0,40.23-27.53,79-67.76,79a72.85,72.85,0,0,1,0-145.7C798.2,358.64,825.73,385.06,825.73,425.3Z"
     transform="translate(-28 -141.34)"
     opacity="0.1"
     id="path1057" />
  <circle
     cx="729.97"
     cy="288.15"
     r="72.85"
     fill="#ae6e79"
     id="circle1059" />
  <path
     d="M751.57,397.21c8.67,3.19,13.8,12.15,21.58,17.14,11,7,25.32,5.19,37.88,1.73,7-1.91,14.32-4.24,21.21-2.12a6,6,0,0,0,3.23.46c1.5-.43,2.24-2.09,2.73-3.57,8.52-25.4,4.69-54.17-8.17-77.67-3.32-6.06-7.3-11.92-12.78-16.13-4.32-3.31-9.4-5.48-14.52-7.33a145,145,0,0,0-28.88-7.13,17.94,17.94,0,0,0-5.27-.17c-2.41.39-4.57,1.69-6.72,2.85A68.78,68.78,0,0,1,732,313.38c-14,.53-30-2.77-40.79,6.21-13,10.77-9.76,31.78-18.19,46.4-5.58,9.67-16.34,16.69-18.11,27.7a25.57,25.57,0,0,0,.63,10.07c4.12,16.94,20.52,30.06,38,30.37a14.42,14.42,0,0,0,7.76-1.59,17.55,17.55,0,0,0,4.09-3.89C716.84,415.09,729.94,389.25,751.57,397.21Z"
     transform="translate(-28 -141.34)"
     fill="#444053"
     id="path1061" />
  <path
     d="M838.2,403.48c-.49,1.48-1.23,3.14-2.73,3.57a6,6,0,0,1-3.23-.46c-6.89-2.12-14.25.21-21.2,2.12-12.57,3.46-26.92,5.31-37.88-1.73-7.79-5-12.91-14-21.59-17.14-21.63-8-34.73,17.88-46.21,31.44a17.55,17.55,0,0,1-4.09,3.89,14.42,14.42,0,0,1-7.76,1.59c-17.42-.31-33.83-13.43-38-30.37-.23-1-.43-2-.58-3,0,.09,0,.17-.05.26a25.57,25.57,0,0,0,.63,10.07c4.12,16.94,20.53,30.06,38,30.37a14.42,14.42,0,0,0,7.76-1.59,17.55,17.55,0,0,0,4.09-3.89c11.48-13.56,24.58-39.4,46.21-31.44,8.68,3.19,13.8,12.15,21.59,17.14,11,7,25.31,5.19,37.88,1.73,7-1.91,14.31-4.24,21.2-2.12a6,6,0,0,0,3.23.46c1.5-.43,2.24-2.09,2.73-3.57a90.29,90.29,0,0,0,4.48-32.26A88.8,88.8,0,0,1,838.2,403.48Z"
     transform="translate(-28 -141.34)"
     opacity="0.1"
     id="path1063" />
  <path
     style="fill:#ffb8b8;stroke-width:0.928571"
     d="m 750.47073,381.10117 c -1.68574,-0.39924 -3.19851,-0.87878 -3.36172,-1.06567 -1.33477,-1.52832 -4.47602,-10.46035 -4.89242,-13.91137 l -0.51713,-4.28589 3.5967,-0.67176 c 3.58478,-0.66953 17.06098,-6.47161 17.06098,-7.34548 0,-0.25291 -3.25841,0.72933 -7.2409,2.18277 -26.98869,9.84965 -56.16955,3.33282 -76.27132,-17.03332 -11.70103,-11.85491 -18.45365,-25.73685 -20.84176,-42.84616 L 657.48473,292.41 h 7.76912 c 9.31252,0 8.67287,0.46011 19.97963,-14.37163 13.68098,-17.94617 22.13406,-23.99556 32.09369,-22.96763 6.60006,0.68118 9.44182,2.31883 18.37724,10.59043 4.20134,3.88921 9.9072,8.13645 12.72416,9.47141 4.6115,2.18539 6.14349,2.41521 15.78572,2.36807 8.56728,-0.0419 12.58553,-0.55634 20.32374,-2.60203 5.30485,-1.40241 11.15131,-2.42356 12.99213,-2.26922 3.29421,0.27618 3.35926,0.36109 4.12795,5.38775 1.03608,6.77508 0.14056,22.53541 -1.60519,28.25011 -1.16569,3.81586 -1.19025,4.73684 -0.14862,5.57143 0.68635,0.54994 1.75852,2.67131 2.38257,4.71417 0.62406,2.04286 2.13267,5.54281 3.35246,7.77767 1.65904,3.03963 2.21553,5.49612 2.20874,9.75 -0.0102,6.42012 -2.13604,11.81101 -8.43604,21.39332 l -3.81941,5.80933 -4.40516,-0.87101 c -12.07475,-2.38748 -26.38798,6.27342 -29.93546,18.11385 -0.96579,3.22351 -1.30162,3.48384 -4.38113,3.39608 -1.83433,-0.0523 -4.7144,-0.4217 -6.40014,-0.82093 z"
     id="path1072" />
  <path
     style="fill:#ffb8b8;stroke-width:0.928571"
     d="m 627.68332,588.48838 -3.28096,-0.4165 -5.39611,-22.00951 c -2.96786,-12.10523 -5.58303,-22.70716 -5.81148,-23.55985 -0.95009,-3.54605 18.67334,-14.72238 32.62666,-18.58219 6.47194,-1.7903 9.76035,-2.05856 25.53571,-2.08321 17.3148,-0.0271 18.64061,0.10287 30.29819,2.96873 15.33433,3.76975 20.45238,3.78441 34.40692,0.0986 14.32622,-3.78403 25.5291,-6.19401 31.86632,-6.85514 44.12078,-4.60289 53.60938,-6.40714 73.44663,-13.96583 7.12748,-2.71582 21.79663,-4.29513 29.6248,-3.18947 14.61301,2.06397 30.50225,13.74176 35.73376,26.26252 1.63723,3.91842 1.88564,16.07174 0.43526,21.2942 -0.52992,1.90809 -2.86509,6.29559 -5.18928,9.75 -2.32417,3.45441 -5.00849,7.80416 -5.96513,9.66613 l -1.73935,3.38538 -12.79834,0.69685 c -7.03909,0.38328 -29.97719,0.43725 -50.97355,0.11994 -43.60779,-0.65903 -66.5392,0.25158 -88.5748,3.5173 -81.46459,12.07322 -86.29846,12.71216 -98.42857,13.01039 -6.89464,0.1695 -14.01215,0.12077 -15.81668,-0.1083 z"
     id="path1074" />
  <path
     style="fill:#ffb8b8;stroke-width:0.928571"
     d="m 624.20065,585.20754 c -0.48527,-1.75749 -3.08884,-12.32345 -5.78572,-23.47993 l -4.90342,-20.28451 3.15496,-2.62749 c 4.38289,-3.65013 17.5525,-10.38102 26.39588,-13.49075 7.24071,-2.54616 7.84691,-2.60314 27.83051,-2.616 19.0555,-0.0123 21.15962,0.15849 31.30525,2.54043 14.16837,3.32638 20.58498,3.27438 35.1109,-0.28449 18.9051,-4.63178 23.59417,-5.47036 44.0604,-7.87962 27.08778,-3.18873 38.76283,-5.4185 53.37333,-10.19356 26.60912,-8.69648 40.62753,-7.88246 56.52558,3.2823 6.73318,4.72853 12.31862,11.05745 14.63371,16.58163 0.82958,1.97952 1.3045,6.41961 1.29117,12.07143 -0.0197,8.36331 -0.21971,9.29966 -3.09924,14.5116 -5.75984,10.42529 -9.94115,16.71139 -11.5371,17.34467 -0.87591,0.34757 -25.82829,0.66777 -55.44972,0.71157 -29.62143,0.0438 -60.125,0.49767 -67.78571,1.0086 -15.50837,1.03434 -17.53884,1.29732 -71.96429,9.32047 -32.20037,4.74684 -41.30905,5.76283 -55.40495,6.17992 l -16.86924,0.49915 z"
     id="path1076" />
  <path
     style="fill:#ffb8b8;stroke-width:0.928571"
     d="m 612.01814,537.34478 c -2.24508,-8.52343 -9.37528,-37.38362 -9.37528,-37.94739 0,-1.29789 6.53745,0.52397 15.37012,4.28334 17.26855,7.34987 36.02763,10.80092 53.80845,9.89898 13.39124,-0.67928 17.5503,-2.08679 26.72331,-9.04374 10.70733,-8.1206 14.17922,-9.51583 24.8124,-9.9712 7.30721,-0.31294 9.85748,-0.0282 14.85715,1.65888 7.87331,2.65674 17.35045,9.01884 23.18338,15.56323 4.73657,5.31431 4.83746,6.6826 0.49519,6.7162 -1.02143,0.008 -9.5875,1.89459 -19.03572,4.19264 -20.28674,4.93425 -25.43039,5.17056 -40.16192,1.84511 -28.83844,-6.50989 -53.56439,-4.71169 -73.58808,5.35173 -5.85734,2.94375 -12.35193,7.14488 -14.74526,9.53822 -1.27455,1.27455 -1.51491,1.06062 -2.34374,-2.086 z"
     id="path1078" />
  <path
     style="fill:#ffb8b8;stroke-width:0.928571"
     d="m 750.85341,380.69293 c -3.75592,-0.88669 -4.22633,-1.53718 -6.61633,-9.14907 -2.68093,-8.53844 -2.60173,-8.80727 3.11321,-10.56706 6.43159,-1.98046 16.06545,-6.54483 14.74381,-6.98538 -0.56352,-0.18784 -4.34265,0.70664 -8.39806,1.98775 -11.49195,3.6303 -22.02805,4.80237 -31.65187,3.52105 -16.05561,-2.13766 -29.42908,-8.46249 -41.02674,-19.40314 -12.37779,-11.67658 -19.39735,-25.37283 -22.61941,-44.13397 l -0.59803,-3.48214 7.7028,-0.0206 c 9.2331,-0.0248 8.8381,0.24083 19.30448,-12.97935 9.97177,-12.59543 14.27062,-17.05788 19.94851,-20.70772 4.01421,-2.5804 5.41768,-2.96674 10.67857,-2.93957 7.38231,0.0381 9.06275,0.89798 19.98551,10.22613 12.06392,10.30272 15.12199,11.5483 28.32143,11.53559 5.87321,-0.006 13.39464,-0.61355 16.71429,-1.35089 14.20158,-3.15434 18.5111,-3.69532 19.72933,-2.47665 1.59975,1.60034 1.49523,22.96455 -0.14942,30.54076 l -1.25731,5.79195 4.30298,9.64011 c 6.24936,14.00064 5.83506,18.87185 -2.82827,33.2536 l -4.28924,7.12046 -7.5219,-0.14718 c -5.95255,-0.11647 -8.42773,0.26958 -11.86358,1.85037 -6.13759,2.82381 -12.24488,8.80047 -15.05276,14.73079 -2.60255,5.49669 -3.48748,5.84033 -10.672,4.14421 z"
     id="path1929" />
  <path
     style="fill:#efb7b9;stroke-width:0.928571;fill-opacity:1"
     d="m 750.85341,380.69293 c -3.75592,-0.88669 -4.22633,-1.53718 -6.61633,-9.14907 -2.70974,-8.63022 -2.64408,-8.83278 3.48635,-10.75525 6.1241,-1.92048 14.57155,-5.99206 13.87567,-6.68793 -0.25833,-0.25834 -3.80124,0.58272 -7.87311,1.86903 -11.57988,3.65808 -22.04111,4.81408 -31.80313,3.51436 -16.08159,-2.14112 -29.22954,-8.37255 -40.90543,-19.38699 -12.37779,-11.67658 -19.39735,-25.37283 -22.61941,-44.13397 l -0.59803,-3.48214 h 7.39941 c 8.91442,0 9.76453,-0.57135 19.78776,-13.29917 9.31024,-11.82244 14.0854,-16.7668 19.62783,-20.32338 4.16251,-2.67107 5.52538,-3.05208 10.81936,-3.02474 7.27868,0.0376 8.97873,0.886 19.52123,9.74196 12.89398,10.83127 14.44226,11.52002 26.7871,11.9162 8.80478,0.28258 12.62561,-0.0897 23.24079,-2.26461 6.98702,-1.43153 13.38685,-2.34062 14.22185,-2.02021 3.00625,1.15361 3.33938,19.26082 0.58871,31.99922 -1.02032,4.72511 -0.94764,5.04715 3.27331,14.50348 6.28291,14.07579 5.59957,20.57813 -3.66649,34.88894 l -3.55261,5.48677 -7.46419,-0.10176 c -5.75006,-0.0784 -8.44989,0.34487 -11.75642,1.84314 -6.13673,2.78069 -11.68614,8.16903 -14.83255,14.40202 -2.94664,5.83725 -3.74517,6.16305 -10.94167,4.4641 z"
     id="path1931" />
  <path
     style="fill:#efb7b9;fill-opacity:1;stroke-width:0.928571"
     d="m 628.73805,587.83045 -4.07466,-0.52806 -5.57636,-22.71184 -5.57636,-22.71185 3.71174,-3.28815 c 3.98409,-3.52942 14.48298,-9.03655 24.35108,-12.77323 12.08744,-4.57705 41.06857,-4.83162 59.95351,-0.52663 15.09037,3.43999 21.74506,3.20159 41.32143,-1.48027 8.9375,-2.13748 17.10285,-4.06851 18.14523,-4.29116 1.04236,-0.22266 11.27986,-1.48283 22.75,-2.80039 25.7592,-2.95891 35.50977,-4.90067 52.29046,-10.41329 13.12946,-4.31315 13.1422,-4.31524 26.64231,-4.37348 l 13.50657,-0.0583 7.19708,3.55409 c 8.58468,4.23931 17.73638,12.4381 21.4025,19.17397 2.45047,4.50232 2.56875,5.27038 2.27188,14.75266 l -0.31317,10.00306 -6.5,10.73694 -6.5,10.73695 -11.60714,0.59666 c -6.38393,0.32817 -33.33572,0.53466 -59.89286,0.45888 -31.36368,-0.0895 -52.35352,0.25052 -59.89286,0.97023 -6.38393,0.6094 -31.66428,4.01568 -56.17857,7.5695 -24.51428,3.55381 -48.54107,6.66887 -53.39286,6.92234 -4.85178,0.25348 -11.32857,0.58429 -14.39285,0.73514 -3.06429,0.15085 -7.40503,0.0367 -9.6461,-0.25379 z"
     id="path3924" />
  <path
     style="fill:#efb7b9;fill-opacity:1;stroke-width:0.928571"
     d="m 608.19387,519.93403 c -2.67899,-10.73757 -4.6314,-19.76234 -4.33869,-20.05504 0.53813,-0.53814 3.97603,0.568 20.34192,6.54497 14.29866,5.22199 25.92836,7.2853 41.5799,7.37699 17.95258,0.10517 21.07675,-0.7584 33.57071,-9.27945 11.15332,-7.60673 16.74457,-9.61196 26.80123,-9.61196 11.24127,0 23.36193,5.75233 33.21766,15.76474 5.063,5.1435 6.02407,7.44954 3.10467,7.44954 -0.95386,0 -9.20654,1.73501 -18.33928,3.85557 -19.89565,4.61963 -28.36408,5.00653 -42.60499,1.9465 -33.35883,-7.16801 -61.57414,-3.28824 -82.17857,11.30002 -2.29821,1.62718 -4.65222,3.24481 -5.23113,3.59474 -0.71981,0.4351 -2.59241,-5.53558 -5.92343,-18.88662 z"
     id="path3926" />
  <path
     style="fill:#efb7b9;stroke-width:0.928571"
     d="m 751.05656,380.5267 c -2.88671,-0.76876 -3.70134,-1.60794 -5.40478,-5.56771 -1.10317,-2.56438 -2.08075,-6.34874 -2.17241,-8.4097 l -0.16665,-3.74717 7.89286,-3.18029 c 4.34107,-1.74915 8.51964,-3.82696 9.28571,-4.61736 1.24573,-1.28529 1.18723,-1.3757 -0.55379,-0.85586 -1.07066,0.31969 -6.03406,1.6181 -11.02978,2.88537 -31.76284,8.05731 -63.84548,-5.10046 -80.4062,-32.97628 -3.9903,-6.71666 -8.58638,-19.57435 -9.71072,-27.16602 l -0.65323,-4.41071 h 6.56174 c 3.60896,0 7.64873,-0.49527 8.97728,-1.10059 1.32854,-0.60533 6.54277,-6.18193 11.58719,-12.39244 14.85922,-18.29421 20.72977,-22.72126 30.12982,-22.72126 6.95473,0 9.54515,1.2822 20.40714,10.10105 5.06127,4.10925 10.70234,8.20278 12.53572,9.09674 5.31983,2.59395 21.54522,2.804 34.06852,0.44102 15.47214,-2.91938 17.29115,-2.93333 18.09258,-0.13881 1.10005,3.83577 0.8904,17.57768 -0.39896,26.15049 l -1.20973,8.04336 3.62879,9.0046 c 6.16591,15.30035 5.73256,21.07743 -2.58173,34.41715 l -4.21506,6.7628 -7.97143,0.0296 c -6.05669,0.0225 -8.90269,0.4804 -11.84849,1.90644 -4.85371,2.34964 -10.91963,8.29362 -14.16034,13.87568 -3.54861,6.1124 -4.06404,6.33286 -10.68405,4.5699 z"
     id="path4263" />
  <path
     style="fill:#efb7b9;stroke-width:0.928571"
     d="m 625.28071,586.73922 c -0.55896,-0.71169 -3.39571,-11.11362 -6.30387,-23.1154 l -5.28758,-21.82143 3.52602,-2.99499 c 4.27464,-3.63087 20.00906,-11.51653 27.66887,-13.86689 4.70236,-1.44288 8.75803,-1.70653 26,-1.69022 17.74571,0.0168 21.82985,0.30586 31.09852,2.20107 14.60516,2.98638 24.06561,2.46733 45.50862,-2.49686 10.24264,-2.37123 23.80212,-4.65197 36.67857,-6.16945 24.65755,-2.90585 34.61636,-4.87828 50.2863,-9.95965 11.58467,-3.75661 12.35853,-3.87909 26.88623,-4.25529 l 14.95822,-0.38734 6.39892,3.2652 c 10.8442,5.53352 19.17796,13.43436 22.79468,21.61056 1.7444,3.9435 1.89731,5.48776 1.35811,13.71552 l -0.6076,9.27168 -6.30938,10.27119 -6.30939,10.27118 -13.8709,0.57655 c -7.629,0.31711 -35.2418,0.6305 -61.3618,0.69643 -51.41611,0.12979 -54.00175,0.28875 -92.72338,5.70048 -60.81958,8.50013 -68.2222,9.37851 -83.57928,9.91741 -12.88737,0.45223 -15.98058,0.31611 -16.80988,-0.73975 z"
     id="path4265" />
  <path
     style="fill:#efb7b9;stroke-width:0.928571"
     d="m 612.78931,536.09637 c -1.34851,-3.5191 -8.27138,-31.91664 -8.28631,-33.99041 -0.006,-0.89375 0.51062,-1.62491 1.14901,-1.62481 0.63839,1.1e-4 7.11425,2.08129 14.39079,4.62486 19.49101,6.81321 29.24079,8.6138 46.66278,8.61769 17.1484,0.004 19.55238,-0.65351 32.46332,-8.87667 4.87196,-3.10303 10.83551,-6.39493 13.25233,-7.31534 14.7617,-5.62179 31.63884,-1.06848 45.53129,12.28395 4.1174,3.95735 6.32177,6.72037 5.76378,7.22448 -1.76109,1.59101 -33.49295,7.78828 -42.22501,8.2466 -7.07442,0.37131 -11.57986,-0.0418 -22.74999,-2.08585 -11.14843,-2.04011 -16.70872,-2.55128 -27.85715,-2.56097 -22.93572,-0.0199 -35.23805,3.68631 -54.53946,16.43082 l -2.53947,1.67678 z"
     id="path4267" />
</svg>
